# xmcd
#
# Track frame offsets:
# 150
# 23845
# 41351
# 65076
# 83736
# 109309
# 131536
# 147227
# 176026
# 200158
#
# Disc length: 2915 seconds
#
# Revision: 1
# Processed by: cddbd v1.4PL0 Copyright (c) Steve Scherf et al.
# Submitted via: CdCzar 3.5b
#
DISCID=900b610a
DTITLE=Hunter, Jim - Turning The Tide
DYEAR=1900
DGENRE=blues
TTITLE0=Hold On
TTITLE1=Man Overboard
TTITLE2=The Sea Is My Mistress
TTITLE3=Swallows Wing
TTITLE4=Ever The Angel
TTITLE5=Heartbreak Train
TTITLE6=Picture Postcard
TTITLE7=The Rope Is On The Willow
TTITLE8=The Sleep Of The Just
TTITLE9=Sanctuary
EXTD=
EXTT0=
EXTT1=
EXTT2=
EXTT3=
EXTT4=
EXTT5=
EXTT6=
EXTT7=
EXTT8=
EXTT9=
PLAYORDER=
